<?xml version="1.0" encoding="UTF-8" standalone="no"?>
<svg
   viewBox="0 0 793.70079 1122.5197"
   width="793.70081"
   height="1122.5197"
   version="1.1"
   id="svg42"
   sodipodi:docname="final.svg"
   inkscape:version="1.3.2 (091e20e, 2023-11-25, custom)"
   xmlns:inkscape="http://www.inkscape.org/namespaces/inkscape"
   xmlns:sodipodi="http://sodipodi.sourceforge.net/DTD/sodipodi-0.dtd"
   xmlns="http://www.w3.org/2000/svg"
   xmlns:svg="http://www.w3.org/2000/svg">
  <sodipodi:namedview
     id="namedview1"
     pagecolor="#ffffff"
     bordercolor="#000000"
     borderopacity="0.25"
     inkscape:showpageshadow="2"
     inkscape:pageopacity="0.0"
     inkscape:pagecheckerboard="0"
     inkscape:deskcolor="#d1d1d1"
     inkscape:zoom="0.70110131"
     inkscape:cx="397.23218"
     inkscape:cy="561.25983"
     inkscape:window-width="1920"
     inkscape:window-height="1001"
     inkscape:window-x="-9"
     inkscape:window-y="-9"
     inkscape:window-maximized="1"
     inkscape:current-layer="g42" />
  <desc
     id="desc1">2d final.dxf - scale = 1.000000, origin = (0.000000, 0.000000), method = manual</desc>
  <defs
     id="defs4" />
  <g
     id="g42">
    <path
       d="m 383.60523,1031.1675 a 3.779528,3.779528 0 0 0 -7.55905,0 3.779528,3.779528 0 0 0 7.55905,0 z"
       style="fill:none;stroke:#040404;stroke-opacity:1"
       id="path5" />
    <path
       d="m 425.59998,1031.1675 a 3.779528,3.779528 0 0 0 -7.55905,0 3.779528,3.779528 0 0 0 7.55905,0 z"
       style="fill:none;stroke:#040404;stroke-opacity:1"
       id="path6" />
    <path
       d="m 467.59473,1031.1675 a 3.779528,3.779528 0 0 0 -7.55905,0 3.779528,3.779528 0 0 0 7.55905,0 z"
       style="fill:none;stroke:#040404;stroke-opacity:1"
       id="path7" />
    <path
       d="m 509.58948,1031.1675 a 3.779528,3.779528 0 0 0 -7.55905,0 3.779528,3.779528 0 0 0 7.55905,0 z"
       style="fill:none;stroke:#040404;stroke-opacity:1"
       id="path8" />
    <path
       d="m 551.58423,1031.1675 a 3.779528,3.779528 0 0 0 -7.55905,0 3.779528,3.779528 0 0 0 7.55905,0 z"
       style="fill:none;stroke:#040404;stroke-opacity:1"
       id="path9" />
    <path
       d="m 593.57898,1031.1675 a 3.779528,3.779528 0 0 0 -7.55905,0 3.779528,3.779528 0 0 0 7.55905,0 z"
       style="fill:none;stroke:#040404;stroke-opacity:1"
       id="path10" />
    <path
       d="m 635.57374,1031.1675 a 3.77953,3.77953 0 0 0 -7.55906,0 3.77953,3.77953 0 0 0 7.55906,0 z"
       style="fill:none;stroke:#040404;stroke-opacity:1"
       id="path11" />
    <path
       d="m 677.56849,1031.1675 a 3.77953,3.77953 0 0 0 -7.55906,0 3.77953,3.77953 0 0 0 7.55906,0 z"
       style="fill:none;stroke:#040404;stroke-opacity:1"
       id="path12" />
    <path
       d="m 719.56324,1031.1675 a 3.77953,3.77953 0 0 0 -7.55906,0 3.77953,3.77953 0 0 0 7.55906,0 z"
       style="fill:none;stroke:#040404;stroke-opacity:1"
       id="path13" />
    <path
       d="m 761.55799,1031.1675 a 3.77953,3.77953 0 0 0 -7.55906,0 3.77953,3.77953 0 0 0 7.55906,0 z"
       style="fill:none;stroke:#040404;stroke-opacity:1"
       id="path14" />
    <path
       d="m 757.77846,1042.506 a 11.338583,11.338583 0 0 0 0,-22.6771 H 379.8257 a 11.338583,11.338583 0 0 0 0,22.6771 z"
       style="fill:none;stroke:#040404;stroke-opacity:1"
       id="path15" />
    <path
       d="M 294.24603,962.15907 212.71501,780.38806 188.19434,725.78847 a 117.07465,117.07465 0 1 1 211.54113,1.18499 z"
       style="fill:none;stroke:#000000"
       id="path16" />
    <path
       d="m 476.79665,586.94326 81.53102,181.77101 24.52068,54.59959 a 117.07465,117.07465 0 1 1 -211.54114,-1.18499 z"
       style="fill:none;stroke:#000000"
       id="path17" />
    <path
       d="M 652.93137,949.32212 571.40035,767.55111 546.87967,712.95152 a 117.07465,117.07465 0 1 1 211.54114,1.18499 z"
       style="fill:none;stroke:#000000"
       id="path18" />
    <path
       d="m 226.47388,1002.9346 a 37.795276,37.795276 0 0 0 -75.59055,0 37.795276,37.795276 0 0 0 75.59055,0 z"
       style="fill:none;stroke:#000000"
       id="path19" />
    <path
       d="M 188.67861,806.54455 358.75735,1101.1296 H 18.599856 Z"
       style="fill:none;stroke:#000000"
       id="path20" />
    <path
       d="m 385.03156,1060.8322 a 3.779528,3.779528 0 0 0 -7.55905,0 3.779528,3.779528 0 0 0 7.55905,0 z"
       style="fill:none;stroke:#040404;stroke-opacity:1"
       id="path21" />
    <path
       d="m 427.02631,1060.8322 a 3.779528,3.779528 0 0 0 -7.55905,0 3.779528,3.779528 0 0 0 7.55905,0 z"
       style="fill:none;stroke:#040404;stroke-opacity:1"
       id="path22" />
    <path
       d="m 469.02106,1060.8322 a 3.779528,3.779528 0 0 0 -7.55905,0 3.779528,3.779528 0 0 0 7.55905,0 z"
       style="fill:none;stroke:#040404;stroke-opacity:1"
       id="path23" />
    <path
       d="m 511.01581,1060.8322 a 3.779528,3.779528 0 0 0 -7.55905,0 3.779528,3.779528 0 0 0 7.55905,0 z"
       style="fill:none;stroke:#040404;stroke-opacity:1"
       id="path24" />
    <path
       d="m 553.01056,1060.8322 a 3.779528,3.779528 0 0 0 -7.55905,0 3.779528,3.779528 0 0 0 7.55905,0 z"
       style="fill:none;stroke:#040404;stroke-opacity:1"
       id="path25" />
    <path
       d="m 595.00531,1060.8322 a 3.779528,3.779528 0 0 0 -7.55905,0 3.779528,3.779528 0 0 0 7.55905,0 z"
       style="fill:none;stroke:#040404;stroke-opacity:1"
       id="path26" />
    <path
       d="m 637.00007,1060.8322 a 3.77953,3.77953 0 0 0 -7.55906,0 3.77953,3.77953 0 0 0 7.55906,0 z"
       style="fill:none;stroke:#040404;stroke-opacity:1"
       id="path27" />
    <path
       d="m 678.99482,1060.8322 a 3.77953,3.77953 0 0 0 -7.55906,0 3.77953,3.77953 0 0 0 7.55906,0 z"
       style="fill:none;stroke:#040404;stroke-opacity:1"
       id="path28" />
    <path
       d="m 720.98957,1060.8322 a 3.77953,3.77953 0 0 0 -7.55906,0 3.77953,3.77953 0 0 0 7.55906,0 z"
       style="fill:none;stroke:#040404;stroke-opacity:1"
       id="path29" />
    <path
       d="m 762.98432,1060.8322 a 3.77953,3.77953 0 0 0 -7.55906,0 3.77953,3.77953 0 0 0 7.55906,0 z"
       style="fill:none;stroke:#040404;stroke-opacity:1"
       id="path30" />
    <path
       d="m 759.20479,1072.1708 a 11.3386,11.3386 0 0 0 0,-22.6772 H 381.25203 a 11.3386,11.3386 0 0 0 0,22.6772 z"
       style="fill:none;stroke:#040404;stroke-opacity:1"
       id="path31" />
    <path
       d="m 385.03156,1089.0706 a 3.779528,3.779528 0 0 0 -7.55905,0 3.779528,3.779528 0 0 0 7.55905,0 z"
       style="fill:none;stroke:#040404;stroke-opacity:1"
       id="path32" />
    <path
       d="m 427.02631,1089.0706 a 3.779528,3.779528 0 0 0 -7.55905,0 3.779528,3.779528 0 0 0 7.55905,0 z"
       style="fill:none;stroke:#040404;stroke-opacity:1"
       id="path33" />
    <path
       d="m 469.02106,1089.0706 a 3.779528,3.779528 0 0 0 -7.55905,0 3.779528,3.779528 0 0 0 7.55905,0 z"
       style="fill:none;stroke:#040404;stroke-opacity:1"
       id="path34" />
    <path
       d="m 511.01581,1089.0706 a 3.779528,3.779528 0 0 0 -7.55905,0 3.779528,3.779528 0 0 0 7.55905,0 z"
       style="fill:none;stroke:#040404;stroke-opacity:1"
       id="path35" />
    <path
       d="m 553.01056,1089.0706 a 3.779528,3.779528 0 0 0 -7.55905,0 3.779528,3.779528 0 0 0 7.55905,0 z"
       style="fill:none;stroke:#040404;stroke-opacity:1"
       id="path36" />
    <path
       d="m 595.00531,1089.0706 a 3.779528,3.779528 0 0 0 -7.55905,0 3.779528,3.779528 0 0 0 7.55905,0 z"
       style="fill:none;stroke:#040404;stroke-opacity:1"
       id="path37" />
    <path
       d="m 637.00007,1089.0706 a 3.77953,3.77953 0 0 0 -7.55906,0 3.77953,3.77953 0 0 0 7.55906,0 z"
       style="fill:none;stroke:#040404;stroke-opacity:1"
       id="path38" />
    <path
       d="m 678.99482,1089.0706 a 3.77953,3.77953 0 0 0 -7.55906,0 3.77953,3.77953 0 0 0 7.55906,0 z"
       style="fill:none;stroke:#040404;stroke-opacity:1"
       id="path39" />
    <path
       d="m 720.98957,1089.0706 a 3.77953,3.77953 0 0 0 -7.55906,0 3.77953,3.77953 0 0 0 7.55906,0 z"
       style="fill:none;stroke:#040404;stroke-opacity:1"
       id="path40" />
    <path
       d="m 762.98432,1089.0706 a 3.77953,3.77953 0 0 0 -7.55906,0 3.77953,3.77953 0 0 0 7.55906,0 z"
       style="fill:none;stroke:#040404;stroke-opacity:1"
       id="path41" />
    <path
       d="m 759.20479,1100.4092 a 11.3386,11.3386 0 0 0 0,-22.6772 H 381.25203 a 11.3386,11.3386 0 0 0 0,22.6772 z"
       style="fill:none;stroke:#040404;stroke-opacity:1"
       id="path42" />
    <path
       d="m 374.82637,461.5395 a 3.779528,3.779528 0 0 0 -7.55905,0 3.779528,3.779528 0 0 0 7.55905,0 z"
       style="fill:none;stroke:#040404;stroke-opacity:1"
       id="path5-6" />
    <path
       d="m 416.82112,461.5395 a 3.779528,3.779528 0 0 0 -7.55905,0 3.779528,3.779528 0 0 0 7.55905,0 z"
       style="fill:none;stroke:#040404;stroke-opacity:1"
       id="path6-5" />
    <path
       d="m 458.81587,461.5395 a 3.779528,3.779528 0 0 0 -7.55905,0 3.779528,3.779528 0 0 0 7.55905,0 z"
       style="fill:none;stroke:#040404;stroke-opacity:1"
       id="path7-5" />
    <path
       d="m 500.81062,461.5395 a 3.779528,3.779528 0 0 0 -7.55905,0 3.779528,3.779528 0 0 0 7.55905,0 z"
       style="fill:none;stroke:#040404;stroke-opacity:1"
       id="path8-0" />
    <path
       d="m 542.80537,461.5395 a 3.779528,3.779528 0 0 0 -7.55905,0 3.779528,3.779528 0 0 0 7.55905,0 z"
       style="fill:none;stroke:#040404;stroke-opacity:1"
       id="path9-9" />
    <path
       d="m 584.80012,461.5395 a 3.779528,3.779528 0 0 0 -7.55905,0 3.779528,3.779528 0 0 0 7.55905,0 z"
       style="fill:none;stroke:#040404;stroke-opacity:1"
       id="path10-8" />
    <path
       d="m 626.79488,461.5395 a 3.77953,3.77953 0 0 0 -7.55906,0 3.77953,3.77953 0 0 0 7.55906,0 z"
       style="fill:none;stroke:#040404;stroke-opacity:1"
       id="path11-2" />
    <path
       d="m 668.78963,461.5395 a 3.77953,3.77953 0 0 0 -7.55906,0 3.77953,3.77953 0 0 0 7.55906,0 z"
       style="fill:none;stroke:#040404;stroke-opacity:1"
       id="path12-9" />
    <path
       d="m 710.78438,461.5395 a 3.77953,3.77953 0 0 0 -7.55906,0 3.77953,3.77953 0 0 0 7.55906,0 z"
       style="fill:none;stroke:#040404;stroke-opacity:1"
       id="path13-5" />
    <path
       d="m 752.77913,461.5395 a 3.77953,3.77953 0 0 0 -7.55906,0 3.77953,3.77953 0 0 0 7.55906,0 z"
       style="fill:none;stroke:#040404;stroke-opacity:1"
       id="path14-9" />
    <path
       d="m 748.9996,472.878 a 11.338583,11.338583 0 0 0 0,-22.6771 H 371.04684 a 11.338583,11.338583 0 0 0 0,22.6771 z"
       style="fill:none;stroke:#040404;stroke-opacity:1"
       id="path15-0" />
    <path
       d="m 376.2527,491.2042 a 3.779528,3.779528 0 0 0 -7.55905,0 3.779528,3.779528 0 0 0 7.55905,0 z"
       style="fill:none;stroke:#040404;stroke-opacity:1"
       id="path21-9" />
    <path
       d="m 418.24745,491.2042 a 3.779528,3.779528 0 0 0 -7.55905,0 3.779528,3.779528 0 0 0 7.55905,0 z"
       style="fill:none;stroke:#040404;stroke-opacity:1"
       id="path22-4" />
    <path
       d="m 460.2422,491.2042 a 3.779528,3.779528 0 0 0 -7.55905,0 3.779528,3.779528 0 0 0 7.55905,0 z"
       style="fill:none;stroke:#040404;stroke-opacity:1"
       id="path23-7" />
    <path
       d="m 502.23695,491.2042 a 3.779528,3.779528 0 0 0 -7.55905,0 3.779528,3.779528 0 0 0 7.55905,0 z"
       style="fill:none;stroke:#040404;stroke-opacity:1"
       id="path24-6" />
    <path
       d="m 544.2317,491.2042 a 3.779528,3.779528 0 0 0 -7.55905,0 3.779528,3.779528 0 0 0 7.55905,0 z"
       style="fill:none;stroke:#040404;stroke-opacity:1"
       id="path25-6" />
    <path
       d="m 586.22645,491.2042 a 3.779528,3.779528 0 0 0 -7.55905,0 3.779528,3.779528 0 0 0 7.55905,0 z"
       style="fill:none;stroke:#040404;stroke-opacity:1"
       id="path26-1" />
    <path
       d="m 628.22121,491.2042 a 3.77953,3.77953 0 0 0 -7.55906,0 3.77953,3.77953 0 0 0 7.55906,0 z"
       style="fill:none;stroke:#040404;stroke-opacity:1"
       id="path27-6" />
    <path
       d="m 670.21596,491.2042 a 3.77953,3.77953 0 0 0 -7.55906,0 3.77953,3.77953 0 0 0 7.55906,0 z"
       style="fill:none;stroke:#040404;stroke-opacity:1"
       id="path28-4" />
    <path
       d="m 712.21071,491.2042 a 3.77953,3.77953 0 0 0 -7.55906,0 3.77953,3.77953 0 0 0 7.55906,0 z"
       style="fill:none;stroke:#040404;stroke-opacity:1"
       id="path29-2" />
    <path
       d="m 754.20546,491.2042 a 3.77953,3.77953 0 0 0 -7.55906,0 3.77953,3.77953 0 0 0 7.55906,0 z"
       style="fill:none;stroke:#040404;stroke-opacity:1"
       id="path30-2" />
    <path
       d="m 750.42593,502.5428 a 11.3386,11.3386 0 0 0 0,-22.6772 H 372.47317 a 11.3386,11.3386 0 0 0 0,22.6772 z"
       style="fill:none;stroke:#040404;stroke-opacity:1"
       id="path31-9" />
    <path
       d="m 376.2527,519.4426 a 3.779528,3.779528 0 0 0 -7.55905,0 3.779528,3.779528 0 0 0 7.55905,0 z"
       style="fill:none;stroke:#040404;stroke-opacity:1"
       id="path32-0" />
    <path
       d="m 418.24745,519.4426 a 3.779528,3.779528 0 0 0 -7.55905,0 3.779528,3.779528 0 0 0 7.55905,0 z"
       style="fill:none;stroke:#040404;stroke-opacity:1"
       id="path33-6" />
    <path
       d="m 460.2422,519.4426 a 3.779528,3.779528 0 0 0 -7.55905,0 3.779528,3.779528 0 0 0 7.55905,0 z"
       style="fill:none;stroke:#040404;stroke-opacity:1"
       id="path34-3" />
    <path
       d="m 502.23695,519.4426 a 3.779528,3.779528 0 0 0 -7.55905,0 3.779528,3.779528 0 0 0 7.55905,0 z"
       style="fill:none;stroke:#040404;stroke-opacity:1"
       id="path35-2" />
    <path
       d="m 544.2317,519.4426 a 3.779528,3.779528 0 0 0 -7.55905,0 3.779528,3.779528 0 0 0 7.55905,0 z"
       style="fill:none;stroke:#040404;stroke-opacity:1"
       id="path36-4" />
    <path
       d="m 586.22645,519.4426 a 3.779528,3.779528 0 0 0 -7.55905,0 3.779528,3.779528 0 0 0 7.55905,0 z"
       style="fill:none;stroke:#040404;stroke-opacity:1"
       id="path37-7" />
    <path
       d="m 628.22121,519.4426 a 3.77953,3.77953 0 0 0 -7.55906,0 3.77953,3.77953 0 0 0 7.55906,0 z"
       style="fill:none;stroke:#040404;stroke-opacity:1"
       id="path38-7" />
    <path
       d="m 670.21596,519.4426 a 3.77953,3.77953 0 0 0 -7.55906,0 3.77953,3.77953 0 0 0 7.55906,0 z"
       style="fill:none;stroke:#040404;stroke-opacity:1"
       id="path39-3" />
    <path
       d="m 712.21071,519.4426 a 3.77953,3.77953 0 0 0 -7.55906,0 3.77953,3.77953 0 0 0 7.55906,0 z"
       style="fill:none;stroke:#040404;stroke-opacity:1"
       id="path40-4" />
    <path
       d="m 754.20546,519.4426 a 3.77953,3.77953 0 0 0 -7.55906,0 3.77953,3.77953 0 0 0 7.55906,0 z"
       style="fill:none;stroke:#040404;stroke-opacity:1"
       id="path41-7" />
    <path
       d="m 750.42593,530.7812 a 11.3386,11.3386 0 0 0 0,-22.6772 H 372.47317 a 11.3386,11.3386 0 0 0 0,22.6772 z"
       style="fill:none;stroke:#040404;stroke-opacity:1"
       id="path42-1" />
  </g>
</svg>
